<svg version="1.0" xmlns="http://www.w3.org/2000/svg" width="100%" height="100%" viewBox="0 0 340.000000 250.000000"
     preserveAspectRatio="xMidYMid meet" color-interpolation-filters="sRGB" style="margin: auto;"><rect data-v-2cb57da0="" x="0" y="0" width="100%" height="100%" fill="#fff" fill-opacity="0" class="background"></rect>  <g data-v-2cb57da0="" fill="#333" class="icon-text-wrapper icon-svg-group iconsvg" transform="translate(81.16999816894531,71.58203125)"><g class="iconsvg-imagesvg" transform="matrix(1,0,0,1,58.83000183105469,0)" opacity="1"><g><rect fill="#333" fill-opacity="0" stroke-width="2" x="0" y="0" width="59.99999999999999" height="68.56594329596489" class="image-rect"></rect> <svg x="0" y="0" width="59.99999999999999" height="68.56594329596489" filtersec="colorsb5843414984" class="image-svg-svg primary" style="overflow: visible;"><svg xmlns="http://www.w3.org/2000/svg" viewBox="-1.1048817416536849e-10 0.0041353716515004635 87.5037612915039 99.99613952636719"><title>资源 229</title><path d="M45.08 99.67l-43.86-26a2.35 2.35 0 0 1-1.15-2L0 28.35A2.35 2.35 0 0 1 2.34 26a2.42 2.42 0 0 1 1.18.31L86.24 74a2.36 2.36 0 0 1 .86 3.21 2.42 2.42 0 0 1-.89.88L47.42 99.7a2.33 2.33 0 0 1-2.34-.03z" fill="#48a4b6"></path><path d="M1.25 25.94L45.63.31A2.35 2.35 0 0 1 48 .34l38.38 23.44a2.34 2.34 0 0 1 .78 3.22 2.44 2.44 0 0 1-.86.83L3.56 73.66a2.34 2.34 0 0 1-3.19-.92 2.33 2.33 0 0 1-.3-1.13V28a2.34 2.34 0 0 1 1.18-2.06z" fill="#eb5b5b"></path><path d="M3.52 26.31A2.42 2.42 0 0 0 2.34 26a2.34 2.34 0 0 0-2.25 1.7 2.45 2.45 0 0 0 0 .27v43.64a2.36 2.36 0 0 0 3.49 2l41.85-23.14z" fill="#b0e5df"></path></svg></svg> <!----></g></g> <g transform="translate(0,75.5659408569336)"><g data-gra="path-name" fill-rule="" class="tp-name iconsvg-namesvg" opacity="1" transform="matrix(1,0,0,1,0,0)"><g transform="scale(1)"><g><path d="M5.06-0.17L18.3-0.17 18.3 3.74 4.3 3.74 1.15 0.6 1.15-27.36 18.3-27.36 18.3-23.45 5.06-23.45 5.06-14.13 18.3-14.13 18.3-10.21 5.06-10.21 5.06-0.17ZM28.04-0.09L33.23-0.09 33.23 3.87 27.28 3.87 24.09 0.68 24.09-13.45 20.64-13.45 20.64-17.36 24.09-17.36 24.09-22.6 28.04-22.6 28.04-17.36 33.23-17.36 33.23-13.45 28.04-13.45 28.04-0.09ZM49.7-14.34L49.7-4.09 39.57-4.09 39.57-0.13 49.7-0.13 49.7 3.83 38.72 3.83 35.57 0.64 35.57-14.34 38.72-17.45 46.6-17.45 49.7-14.34ZM39.57-13.53L39.57-7.57 45.74-7.57 45.74-13.53 39.57-13.53ZM56.09-13.45L56.09 3.83 52.09 3.83 52.09-14.26 55.28-17.4 59.02-17.4 59.02-13.45 56.09-13.45ZM67.06-13.62L67.06 3.91 63.06 3.91 63.06-14.38 66.26-17.57 74.13-17.57 77.28-14.38 77.28 3.91 73.36 3.91 73.36-13.62 67.06-13.62ZM93.83 3.83L82.77 3.83 79.57 0.64 79.57-6.85 82.77-10 89.87-10 89.87-13.62 79.74-13.62 79.74-17.53 90.64-17.53 93.83-14.34 93.83 3.83ZM89.87 0.26L89.87-6.43 83.57-6.43 83.57 0.26 89.87 0.26ZM96.3 3.87L96.3-27.36 100.21-27.36 100.21 3.87 96.3 3.87ZM115.74-14.89L115.74-27.36 119.7-27.36 119.7 3.87 115.74 3.87 115.74-10.94 106.47-10.94 106.47 3.87 102.51 3.87 102.51-27.36 106.47-27.36 106.47-14.89 115.74-14.89ZM136.13-14.34L136.13-4.09 126-4.09 126-0.13 136.13-0.13 136.13 3.83 125.15 3.83 122 0.64 122-14.34 125.15-17.45 133.02-17.45 136.13-14.34ZM126-13.53L126-7.57 132.17-7.57 132.17-13.53 126-13.53ZM152.77 3.83L141.7 3.83 138.51 0.64 138.51-6.85 141.7-10 148.81-10 148.81-13.62 138.68-13.62 138.68-17.53 149.57-17.53 152.77-14.34 152.77 3.83ZM148.81 0.26L148.81-6.43 142.51-6.43 142.51 0.26 148.81 0.26ZM159.23-13.45L159.23 3.83 155.23 3.83 155.23-14.26 158.43-17.4 162.17-17.4 162.17-13.45 159.23-13.45ZM173.62-0.09L178.81-0.09 178.81 3.87 172.85 3.87 169.66 0.68 169.66-13.45 166.21-13.45 166.21-17.36 169.66-17.36 169.66-22.6 173.62-22.6 173.62-17.36 178.81-17.36 178.81-13.45 173.62-13.45 173.62-0.09Z" transform="translate(-1.149999976158142, 27.360000610351562)"></path></g> <!----> <!----> <!----> <!----> <!----> <!----> <!----></g></g> <!----></g></g><defs v-gra="od"></defs></svg>
